<?xml version="1.0" standalone="no"?>
<!DOCTYPE svg PUBLIC "-//W3C//DTD SVG 20010904//EN"
 "http://www.w3.org/TR/2001/REC-SVG-20010904/DTD/svg10.dtd">
<svg version="1.0" xmlns="http://www.w3.org/2000/svg"
 width="512.000000pt" height="512.000000pt" viewBox="0 0 512.000000 512.000000"
 preserveAspectRatio="xMidYMid meet">
<metadata>
Created by potrace 1.14, written by Peter Selinger 2001-2017
</metadata>
<g transform="translate(0.000000,512.000000) scale(0.100000,-0.100000)"
fill="#000000" stroke="none">
<path d="M2468 4174 c-2 -1 -33 -5 -68 -8 -36 -3 -77 -8 -92 -11 -16 -3 -39
-7 -53 -9 -13 -3 -30 -8 -35 -11 -6 -4 -21 -8 -33 -10 -35 -4 -52 -9 -58 -18
-3 -4 -16 -9 -27 -10 -12 -1 -22 -5 -22 -10 0 -4 -4 -6 -9 -3 -7 5 -200 -86
-226 -106 -19 -15 -86 -58 -90 -58 -3 0 -13 -8 -23 -17 -11 -10 -36 -32 -58
-50 -48 -38 -180 -171 -212 -212 l-23 -30 23 5 c13 3 33 7 45 10 12 2 34 9 48
14 14 5 29 9 33 9 4 -1 9 0 12 1 31 12 164 15 225 5 22 -3 48 -6 58 -6 9 0 17
-3 17 -7 0 -4 12 -9 27 -10 51 -4 278 -125 312 -166 7 -9 17 -16 22 -16 4 0
26 -17 47 -37 21 -21 58 -54 82 -73 52 -42 50 -40 125 -123 54 -61 85 -82 85
-58 0 11 171 184 259 261 35 30 86 69 114 86 101 60 165 92 171 87 3 -4 6 -1
6 5 0 7 9 12 19 12 11 0 23 5 26 10 4 6 11 8 16 5 5 -4 15 -3 22 2 6 4 17 8
22 10 6 1 21 5 35 9 14 3 55 7 92 8 38 0 68 5 68 9 0 5 4 5 10 2 5 -3 31 -8
57 -10 27 -2 48 -4 48 -5 0 -1 12 -3 27 -5 14 -2 54 -15 87 -28 34 -14 61 -20
61 -15 0 9 -66 84 -103 117 -10 9 -35 32 -56 51 -74 71 -158 140 -169 140 -7
0 -12 4 -12 8 0 5 -12 15 -27 23 -16 7 -47 26 -70 41 -23 15 -46 28 -51 28 -6
0 -12 3 -14 8 -8 18 -208 100 -286 117 -12 3 -31 7 -42 10 -49 12 -68 16 -115
21 -57 6 -323 13 -327 8z"/>
<path d="M1620 3560 c0 -3 -12 -7 -26 -8 -14 -1 -31 -5 -37 -9 -7 -4 -20 -9
-30 -10 -49 -8 -159 -68 -222 -122 -86 -73 -249 -293 -260 -351 -2 -8 -4 -17
-5 -20 -1 -3 -2 -8 -1 -12 0 -5 -3 -8 -8 -8 -7 0 -18 -31 -27 -80 -1 -8 -6
-26 -9 -40 -30 -113 -25 -378 7 -470 3 -8 12 -35 19 -60 14 -49 85 -193 109
-224 8 -10 21 -24 28 -31 6 -8 12 -18 12 -23 0 -13 137 -141 193 -180 57 -40
134 -75 207 -93 81 -19 251 -17 330 5 36 10 71 18 78 19 6 0 12 4 12 9 0 4 6
8 13 8 7 0 18 5 25 12 6 6 18 13 25 14 7 1 46 21 86 45 50 30 122 92 227 194
l154 151 -32 36 c-58 63 -135 142 -169 174 -19 18 -48 49 -66 70 l-32 37 -98
-99 c-54 -54 -114 -111 -133 -125 -67 -50 -198 -97 -240 -86 -11 3 -22 2 -25
-3 -3 -4 -20 -4 -39 0 -19 4 -37 5 -40 2 -4 -3 -6 1 -6 8 0 7 -3 11 -6 7 -4
-3 -19 0 -35 9 -16 8 -30 13 -32 12 -4 -4 -87 63 -120 97 -36 37 -52 69 -77
147 -22 72 -23 225 -1 273 8 17 14 33 13 38 -1 4 2 7 8 7 5 0 10 4 10 10 0 9
20 34 65 84 29 32 117 83 167 97 57 17 123 18 178 2 59 -17 150 -62 150 -74 0
-5 6 -9 12 -9 12 0 282 -270 401 -401 108 -120 172 -189 227 -248 30 -32 70
-76 89 -97 53 -62 134 -145 194 -200 57 -54 205 -157 221 -154 5 1 12 -2 15
-7 9 -13 102 -51 142 -58 19 -3 48 -10 66 -14 35 -10 233 -8 249 2 6 3 25 9
42 12 30 5 130 49 177 78 56 34 105 71 105 78 0 4 9 11 20 14 11 3 20 11 20
16 0 5 13 23 29 39 16 17 42 49 57 73 16 23 32 44 37 45 4 2 7 8 7 13 0 5 11
27 24 48 13 21 34 69 46 107 20 65 23 81 36 164 2 19 7 51 10 70 8 52 8 78 -1
150 -4 36 -9 92 -11 125 -3 33 -6 67 -7 75 -2 8 -7 36 -11 63 -5 26 -12 47
-17 47 -5 0 -9 7 -9 15 0 45 -113 215 -201 304 -168 168 -376 242 -579 206
-25 -4 -53 -8 -62 -9 -10 0 -18 -3 -18 -6 0 -4 -23 -12 -50 -19 -28 -7 -69
-22 -93 -33 -46 -23 -153 -92 -177 -114 -8 -8 -33 -31 -56 -52 -89 -81 -154
-142 -154 -146 0 -2 -18 -23 -40 -47 -22 -24 -39 -47 -38 -50 7 -16 83 -101
181 -200 59 -61 107 -114 107 -119 0 -5 26 19 58 52 150 159 180 185 266 227
119 59 210 59 333 -1 96 -46 178 -141 208 -241 20 -67 13 -211 -13 -269 -21
-49 -77 -126 -101 -142 -7 -4 -21 -16 -30 -25 -26 -24 -77 -51 -85 -44 -3 3
-6 2 -6 -4 0 -10 -18 -17 -80 -30 -31 -7 -73 -7 -121 -1 -35 5 -148 57 -175
81 -7 7 -28 23 -45 37 -37 29 -98 93 -293 304 -50 55 -125 134 -166 176 -105
107 -239 249 -277 293 -18 20 -34 37 -35 37 -2 0 -40 36 -86 79 -143 136 -328
245 -448 265 -16 2 -29 5 -29 6 0 2 -46 3 -102 4 -57 1 -103 -1 -103 -4z
m1165 -1060 c-3 -5 -12 -10 -20 -10 -8 0 -17 5 -20 10 -4 6 5 10 20 10 15 0
24 -4 20 -10z"/>
<path d="M3385 2975 c-58 -13 -84 -26 -140 -68 -43 -32 -165 -154 -202 -201
l-22 -28 57 -65 c92 -104 150 -163 160 -163 5 0 21 -9 36 -21 14 -11 26 -18
26 -15 0 3 15 -2 34 -12 33 -18 126 -23 193 -10 66 12 177 128 195 203 13 51
17 134 8 140 -5 3 -7 12 -4 20 3 8 2 20 -2 27 -5 7 -9 15 -10 18 -5 26 -28 61
-58 88 -42 38 -102 73 -110 65 -3 -4 -6 -2 -6 4 0 9 -43 22 -90 28 -9 1 -38
-4 -65 -10z"/>
<path d="M1637 2965 c-101 -38 -174 -120 -193 -216 -8 -40 -8 -54 1 -94 3 -16
7 -39 9 -50 5 -31 44 -104 74 -134 31 -32 109 -79 137 -84 11 -1 25 -5 30 -8
14 -7 85 -4 110 5 91 33 125 57 232 164 62 62 113 115 113 118 0 3 -39 48 -87
100 -55 59 -119 116 -171 151 -78 52 -89 56 -150 59 -42 2 -81 -2 -105 -11z"/>
<path d="M2564 2200 c-5 -10 -41 -52 -80 -92 -76 -77 -94 -94 -189 -172 -33
-28 -62 -53 -65 -56 -11 -15 -91 -60 -105 -60 -8 0 -15 -4 -15 -10 0 -5 -5
-10 -10 -10 -6 0 -30 -9 -54 -21 -47 -22 -116 -43 -206 -64 -78 -17 -185 -10
-297 20 -52 14 -97 25 -99 22 -2 -2 25 -32 60 -68 55 -56 92 -90 215 -196 14
-13 29 -23 33 -23 5 0 17 -9 28 -20 29 -29 66 -50 205 -119 192 -95 358 -134
580 -134 166 0 224 6 324 33 24 6 49 9 56 6 8 -3 15 -2 17 2 2 4 41 20 88 35
234 78 392 185 617 417 66 68 85 95 51 74 -7 -5 -17 -9 -23 -11 -5 -1 -44 -11
-85 -23 -90 -25 -248 -29 -310 -8 -8 3 -49 15 -90 28 -74 22 -223 93 -248 117
-7 7 -17 13 -21 13 -4 0 -19 9 -32 21 -58 49 -225 207 -248 233 -40 45 -80 86
-84 86 -2 0 -8 -9 -13 -20z"/>
</g>
</svg>
